<mxfile host="app.diagrams.net" modified="2021-08-12T23:49:37.219Z" agent="5.0 (Windows NT 10.0; Win64; x64) AppleWebKit/537.36 (KHTML, like Gecko) Chrome/92.0.4515.131 Safari/537.36" etag="9NDr54nOTy6pRqZAVecP" version="14.9.6" type="github">
  <diagram name="Page-1" id="ff44883e-f642-bcb2-894b-16b3d25a3f0b">
    <mxGraphModel dx="1736" dy="900" grid="1" gridSize="10" guides="1" tooltips="1" connect="1" arrows="1" fold="1" page="1" pageScale="1.5" pageWidth="1169" pageHeight="826" background="none" math="0" shadow="0">
      <root>
        <mxCell id="0" style=";html=1;" />
        <mxCell id="1" style=";html=1;" parent="0" />
        <mxCell id="f0bcc99304e6f5a-1" value="Inicio" style="ellipse;whiteSpace=wrap;html=1;rounded=0;shadow=1;strokeColor=#666666;strokeWidth=4;fontSize=30;align=center;fillColor=#f5f5f5;" parent="1" vertex="1">
          <mxGeometry x="120" y="550" width="80" height="80" as="geometry" />
        </mxCell>
        <mxCell id="agODYE032NH0XFh_jwLP-17" value="A" style="ellipse;whiteSpace=wrap;html=1;rounded=0;shadow=1;strokeColor=#666666;strokeWidth=4;fontSize=30;align=center;fillColor=#f5f5f5;" vertex="1" parent="1">
          <mxGeometry x="370" y="400" width="80" height="80" as="geometry" />
        </mxCell>
        <mxCell id="agODYE032NH0XFh_jwLP-18" value="B" style="ellipse;whiteSpace=wrap;html=1;rounded=0;shadow=1;strokeColor=#666666;strokeWidth=4;fontSize=30;align=center;fillColor=#f5f5f5;" vertex="1" parent="1">
          <mxGeometry x="310" y="650" width="80" height="80" as="geometry" />
        </mxCell>
        <mxCell id="agODYE032NH0XFh_jwLP-19" value="C" style="ellipse;whiteSpace=wrap;html=1;rounded=0;shadow=1;strokeColor=#666666;strokeWidth=4;fontSize=30;align=center;fillColor=#f5f5f5;" vertex="1" parent="1">
          <mxGeometry x="570" y="410" width="80" height="80" as="geometry" />
        </mxCell>
        <mxCell id="agODYE032NH0XFh_jwLP-20" value="D" style="ellipse;whiteSpace=wrap;html=1;rounded=0;shadow=1;strokeColor=#666666;strokeWidth=4;fontSize=30;align=center;fillColor=#f5f5f5;" vertex="1" parent="1">
          <mxGeometry x="570" y="650" width="80" height="80" as="geometry" />
        </mxCell>
        <mxCell id="agODYE032NH0XFh_jwLP-21" value="X1" style="ellipse;whiteSpace=wrap;html=1;rounded=0;shadow=1;strokeColor=#666666;strokeWidth=4;fontSize=30;align=center;fillColor=#f5f5f5;" vertex="1" parent="1">
          <mxGeometry x="797" y="530" width="80" height="80" as="geometry" />
        </mxCell>
        <mxCell id="agODYE032NH0XFh_jwLP-22" value="G" style="ellipse;whiteSpace=wrap;html=1;rounded=0;shadow=1;strokeColor=#666666;strokeWidth=4;fontSize=30;align=center;fillColor=#f5f5f5;" vertex="1" parent="1">
          <mxGeometry x="980" y="380" width="80" height="80" as="geometry" />
        </mxCell>
        <mxCell id="agODYE032NH0XFh_jwLP-23" value="H" style="ellipse;whiteSpace=wrap;html=1;rounded=0;shadow=1;strokeColor=#666666;strokeWidth=4;fontSize=30;align=center;fillColor=#f5f5f5;" vertex="1" parent="1">
          <mxGeometry x="980" y="650" width="80" height="80" as="geometry" />
        </mxCell>
        <mxCell id="agODYE032NH0XFh_jwLP-24" value="I" style="ellipse;whiteSpace=wrap;html=1;rounded=0;shadow=1;strokeColor=#666666;strokeWidth=4;fontSize=30;align=center;fillColor=#f5f5f5;" vertex="1" parent="1">
          <mxGeometry x="1200" y="380" width="80" height="80" as="geometry" />
        </mxCell>
        <mxCell id="agODYE032NH0XFh_jwLP-25" value="J" style="ellipse;whiteSpace=wrap;html=1;rounded=0;shadow=1;strokeColor=#666666;strokeWidth=4;fontSize=30;align=center;fillColor=#f5f5f5;" vertex="1" parent="1">
          <mxGeometry x="1210" y="650" width="80" height="80" as="geometry" />
        </mxCell>
        <mxCell id="agODYE032NH0XFh_jwLP-57" style="edgeStyle=orthogonalEdgeStyle;rounded=0;orthogonalLoop=1;jettySize=auto;html=1;exitX=1;exitY=0.5;exitDx=0;exitDy=0;entryX=0;entryY=0.5;entryDx=0;entryDy=0;fontSize=34;" edge="1" parent="1" source="agODYE032NH0XFh_jwLP-26" target="agODYE032NH0XFh_jwLP-56">
          <mxGeometry relative="1" as="geometry" />
        </mxCell>
        <mxCell id="agODYE032NH0XFh_jwLP-26" value="L" style="ellipse;whiteSpace=wrap;html=1;rounded=0;shadow=1;strokeColor=#666666;strokeWidth=4;fontSize=30;align=center;fillColor=#f5f5f5;" vertex="1" parent="1">
          <mxGeometry x="1400" y="260" width="80" height="80" as="geometry" />
        </mxCell>
        <mxCell id="agODYE032NH0XFh_jwLP-27" value="K" style="ellipse;whiteSpace=wrap;html=1;rounded=0;shadow=1;strokeColor=#666666;strokeWidth=4;fontSize=30;align=center;fillColor=#f5f5f5;" vertex="1" parent="1">
          <mxGeometry x="1390" y="410" width="80" height="80" as="geometry" />
        </mxCell>
        <mxCell id="agODYE032NH0XFh_jwLP-31" value="" style="endArrow=classic;html=1;fontSize=34;exitX=1;exitY=0;exitDx=0;exitDy=0;entryX=0;entryY=1;entryDx=0;entryDy=0;" edge="1" parent="1" source="f0bcc99304e6f5a-1" target="agODYE032NH0XFh_jwLP-17">
          <mxGeometry width="50" height="50" relative="1" as="geometry">
            <mxPoint x="170" y="560" as="sourcePoint" />
            <mxPoint x="370" y="470" as="targetPoint" />
          </mxGeometry>
        </mxCell>
        <mxCell id="agODYE032NH0XFh_jwLP-36" value="" style="endArrow=classic;html=1;fontSize=34;exitX=1;exitY=0;exitDx=0;exitDy=0;entryX=0;entryY=0;entryDx=0;entryDy=0;" edge="1" parent="1" target="agODYE032NH0XFh_jwLP-18">
          <mxGeometry width="50" height="50" relative="1" as="geometry">
            <mxPoint x="198.28427124746213" y="571.7157287525379" as="sourcePoint" />
            <mxPoint x="391.71572875253787" y="478.28427124746213" as="targetPoint" />
          </mxGeometry>
        </mxCell>
        <mxCell id="agODYE032NH0XFh_jwLP-37" value="" style="endArrow=classic;html=1;fontSize=34;exitX=1;exitY=1;exitDx=0;exitDy=0;entryX=0;entryY=1;entryDx=0;entryDy=0;" edge="1" parent="1" source="agODYE032NH0XFh_jwLP-17" target="agODYE032NH0XFh_jwLP-19">
          <mxGeometry width="50" height="50" relative="1" as="geometry">
            <mxPoint x="208.28427124746213" y="581.7157287525379" as="sourcePoint" />
            <mxPoint x="401.71572875253787" y="488.28427124746213" as="targetPoint" />
          </mxGeometry>
        </mxCell>
        <mxCell id="agODYE032NH0XFh_jwLP-38" value="" style="endArrow=classic;html=1;fontSize=34;exitX=1;exitY=0.5;exitDx=0;exitDy=0;entryX=0;entryY=0.5;entryDx=0;entryDy=0;" edge="1" parent="1" source="agODYE032NH0XFh_jwLP-18" target="agODYE032NH0XFh_jwLP-20">
          <mxGeometry width="50" height="50" relative="1" as="geometry">
            <mxPoint x="218.28427124746213" y="591.7157287525379" as="sourcePoint" />
            <mxPoint x="411.71572875253787" y="498.28427124746213" as="targetPoint" />
          </mxGeometry>
        </mxCell>
        <mxCell id="agODYE032NH0XFh_jwLP-39" value="" style="endArrow=classic;html=1;fontSize=34;entryX=0;entryY=0.5;entryDx=0;entryDy=0;" edge="1" parent="1" source="agODYE032NH0XFh_jwLP-19" target="agODYE032NH0XFh_jwLP-21">
          <mxGeometry width="50" height="50" relative="1" as="geometry">
            <mxPoint x="228.28427124746213" y="601.7157287525379" as="sourcePoint" />
            <mxPoint x="421.71572875253787" y="508.28427124746213" as="targetPoint" />
          </mxGeometry>
        </mxCell>
        <mxCell id="agODYE032NH0XFh_jwLP-40" value="" style="endArrow=classic;html=1;fontSize=34;exitX=1;exitY=0;exitDx=0;exitDy=0;entryX=-0.05;entryY=0.7;entryDx=0;entryDy=0;entryPerimeter=0;" edge="1" parent="1" source="agODYE032NH0XFh_jwLP-20" target="agODYE032NH0XFh_jwLP-21">
          <mxGeometry width="50" height="50" relative="1" as="geometry">
            <mxPoint x="238.28427124746213" y="611.7157287525379" as="sourcePoint" />
            <mxPoint x="431.71572875253787" y="518.2842712474621" as="targetPoint" />
          </mxGeometry>
        </mxCell>
        <mxCell id="agODYE032NH0XFh_jwLP-42" value="" style="endArrow=classic;html=1;fontSize=34;exitX=1;exitY=0;exitDx=0;exitDy=0;" edge="1" parent="1" source="agODYE032NH0XFh_jwLP-21">
          <mxGeometry width="50" height="50" relative="1" as="geometry">
            <mxPoint x="248.28427124746213" y="621.7157287525379" as="sourcePoint" />
            <mxPoint x="990" y="440" as="targetPoint" />
          </mxGeometry>
        </mxCell>
        <mxCell id="agODYE032NH0XFh_jwLP-43" value="" style="endArrow=classic;html=1;fontSize=34;exitX=1;exitY=1;exitDx=0;exitDy=0;entryX=0;entryY=0.2;entryDx=0;entryDy=0;entryPerimeter=0;" edge="1" parent="1" source="agODYE032NH0XFh_jwLP-21" target="agODYE032NH0XFh_jwLP-23">
          <mxGeometry width="50" height="50" relative="1" as="geometry">
            <mxPoint x="258.28427124746213" y="631.7157287525379" as="sourcePoint" />
            <mxPoint x="1020" y="680" as="targetPoint" />
          </mxGeometry>
        </mxCell>
        <mxCell id="agODYE032NH0XFh_jwLP-44" value="" style="endArrow=classic;html=1;fontSize=34;exitX=1;exitY=0.5;exitDx=0;exitDy=0;entryX=0;entryY=0.5;entryDx=0;entryDy=0;" edge="1" parent="1" source="agODYE032NH0XFh_jwLP-22" target="agODYE032NH0XFh_jwLP-24">
          <mxGeometry width="50" height="50" relative="1" as="geometry">
            <mxPoint x="268.28427124746213" y="641.7157287525379" as="sourcePoint" />
            <mxPoint x="461.71572875253787" y="548.2842712474621" as="targetPoint" />
          </mxGeometry>
        </mxCell>
        <mxCell id="agODYE032NH0XFh_jwLP-45" value="" style="endArrow=classic;html=1;fontSize=34;exitX=1;exitY=0.5;exitDx=0;exitDy=0;entryX=0;entryY=0.325;entryDx=0;entryDy=0;entryPerimeter=0;" edge="1" parent="1" source="agODYE032NH0XFh_jwLP-23" target="agODYE032NH0XFh_jwLP-25">
          <mxGeometry width="50" height="50" relative="1" as="geometry">
            <mxPoint x="278.28427124746213" y="651.7157287525379" as="sourcePoint" />
            <mxPoint x="471.71572875253787" y="558.2842712474621" as="targetPoint" />
          </mxGeometry>
        </mxCell>
        <mxCell id="agODYE032NH0XFh_jwLP-46" value="E" style="ellipse;whiteSpace=wrap;html=1;rounded=0;shadow=1;strokeColor=#666666;strokeWidth=4;fontSize=30;align=center;fillColor=#f5f5f5;" vertex="1" parent="1">
          <mxGeometry x="680" y="810" width="80" height="80" as="geometry" />
        </mxCell>
        <mxCell id="agODYE032NH0XFh_jwLP-59" style="edgeStyle=orthogonalEdgeStyle;rounded=0;orthogonalLoop=1;jettySize=auto;html=1;exitX=1;exitY=0.5;exitDx=0;exitDy=0;entryX=0.5;entryY=1;entryDx=0;entryDy=0;fontSize=34;" edge="1" parent="1" source="agODYE032NH0XFh_jwLP-47" target="agODYE032NH0XFh_jwLP-56">
          <mxGeometry relative="1" as="geometry" />
        </mxCell>
        <mxCell id="agODYE032NH0XFh_jwLP-47" value="F" style="ellipse;whiteSpace=wrap;html=1;rounded=0;shadow=1;strokeColor=#666666;strokeWidth=4;fontSize=30;align=center;fillColor=#f5f5f5;" vertex="1" parent="1">
          <mxGeometry x="1090" y="790" width="80" height="80" as="geometry" />
        </mxCell>
        <mxCell id="agODYE032NH0XFh_jwLP-48" value="" style="endArrow=classic;html=1;fontSize=34;entryX=0;entryY=0;entryDx=0;entryDy=0;" edge="1" parent="1" source="agODYE032NH0XFh_jwLP-18" target="agODYE032NH0XFh_jwLP-46">
          <mxGeometry width="50" height="50" relative="1" as="geometry">
            <mxPoint x="850" y="570" as="sourcePoint" />
            <mxPoint x="900" y="520" as="targetPoint" />
          </mxGeometry>
        </mxCell>
        <mxCell id="agODYE032NH0XFh_jwLP-49" value="" style="endArrow=classic;html=1;fontSize=34;entryX=0;entryY=0.5;entryDx=0;entryDy=0;exitX=1;exitY=0.5;exitDx=0;exitDy=0;" edge="1" parent="1" source="agODYE032NH0XFh_jwLP-46" target="agODYE032NH0XFh_jwLP-47">
          <mxGeometry width="50" height="50" relative="1" as="geometry">
            <mxPoint x="397.36207339404655" y="714.285498650665" as="sourcePoint" />
            <mxPoint x="701.7157287525379" y="831.7157287525379" as="targetPoint" />
          </mxGeometry>
        </mxCell>
        <mxCell id="agODYE032NH0XFh_jwLP-58" style="edgeStyle=orthogonalEdgeStyle;rounded=0;orthogonalLoop=1;jettySize=auto;html=1;exitX=1;exitY=0;exitDx=0;exitDy=0;entryX=0.5;entryY=1;entryDx=0;entryDy=0;fontSize=34;" edge="1" parent="1" source="agODYE032NH0XFh_jwLP-51" target="agODYE032NH0XFh_jwLP-56">
          <mxGeometry relative="1" as="geometry" />
        </mxCell>
        <mxCell id="agODYE032NH0XFh_jwLP-51" value="M" style="ellipse;whiteSpace=wrap;html=1;rounded=0;shadow=1;strokeColor=#666666;strokeWidth=4;fontSize=30;align=center;fillColor=#f5f5f5;" vertex="1" parent="1">
          <mxGeometry x="1440" y="620" width="80" height="80" as="geometry" />
        </mxCell>
        <mxCell id="agODYE032NH0XFh_jwLP-52" value="" style="endArrow=classic;html=1;fontSize=34;exitX=1;exitY=1;exitDx=0;exitDy=0;entryX=0;entryY=0.5;entryDx=0;entryDy=0;" edge="1" parent="1" source="agODYE032NH0XFh_jwLP-24" target="agODYE032NH0XFh_jwLP-27">
          <mxGeometry width="50" height="50" relative="1" as="geometry">
            <mxPoint x="875.2842712474621" y="608.2842712474621" as="sourcePoint" />
            <mxPoint x="990" y="676" as="targetPoint" />
          </mxGeometry>
        </mxCell>
        <mxCell id="agODYE032NH0XFh_jwLP-53" value="" style="endArrow=classic;html=1;fontSize=34;exitX=1;exitY=0.5;exitDx=0;exitDy=0;entryX=0;entryY=0.5;entryDx=0;entryDy=0;" edge="1" parent="1" source="agODYE032NH0XFh_jwLP-27" target="agODYE032NH0XFh_jwLP-51">
          <mxGeometry width="50" height="50" relative="1" as="geometry">
            <mxPoint x="1278.2842712474621" y="458.28427124746213" as="sourcePoint" />
            <mxPoint x="1450" y="530" as="targetPoint" />
          </mxGeometry>
        </mxCell>
        <mxCell id="agODYE032NH0XFh_jwLP-54" value="" style="endArrow=classic;html=1;fontSize=34;exitX=1;exitY=0.5;exitDx=0;exitDy=0;entryX=0;entryY=0.625;entryDx=0;entryDy=0;entryPerimeter=0;" edge="1" parent="1" source="agODYE032NH0XFh_jwLP-25" target="agODYE032NH0XFh_jwLP-51">
          <mxGeometry width="50" height="50" relative="1" as="geometry">
            <mxPoint x="1530" y="530" as="sourcePoint" />
            <mxPoint x="1580" y="680" as="targetPoint" />
          </mxGeometry>
        </mxCell>
        <mxCell id="agODYE032NH0XFh_jwLP-55" value="" style="endArrow=classic;html=1;fontSize=34;exitX=1;exitY=0;exitDx=0;exitDy=0;entryX=0;entryY=1;entryDx=0;entryDy=0;" edge="1" parent="1" source="agODYE032NH0XFh_jwLP-24" target="agODYE032NH0XFh_jwLP-26">
          <mxGeometry width="50" height="50" relative="1" as="geometry">
            <mxPoint x="1278.2842712474621" y="458.28427124746213" as="sourcePoint" />
            <mxPoint x="1450" y="530" as="targetPoint" />
          </mxGeometry>
        </mxCell>
        <mxCell id="agODYE032NH0XFh_jwLP-56" value="FIN" style="ellipse;whiteSpace=wrap;html=1;rounded=0;shadow=1;strokeColor=#666666;strokeWidth=4;fontSize=30;align=center;fillColor=#f5f5f5;" vertex="1" parent="1">
          <mxGeometry x="1620" y="320" width="80" height="80" as="geometry" />
        </mxCell>
      </root>
    </mxGraphModel>
  </diagram>
</mxfile>
